<svg width="45" height="45" viewBox="0 0 45 45" fill="none" xmlns="http://www.w3.org/2000/svg">
<path d="M16.8988 13.7498C11.7465 8.73683 15.2956 0 22.4841 0C29.6727 0 33.2217 8.73684 28.0695 13.7498L22.4841 19.1842L16.8988 13.7498Z" fill="#CBEA7B"/>
<path d="M16.9312 31.2502C11.779 36.2632 15.328 45 22.5165 45C29.7051 45 33.2541 36.2632 28.1019 31.2502L22.5165 25.8158L16.9312 31.2502Z" fill="#CBEA7B"/>
<path d="M13.7498 28.1009C8.73683 33.2532 0 29.7042 0 22.5156C0 15.327 8.73684 11.778 13.7498 16.9302L19.1842 22.5156L13.7498 28.1009Z" fill="#CBEA7B"/>
<path d="M31.2502 28.0687C36.2632 33.2209 45 29.6719 45 22.4834C45 15.2948 36.2632 11.7458 31.2502 16.898L25.8158 22.4834L31.2502 28.0687Z" fill="#CBEA7B"/>
</svg>
