<svg width="40" height="40" viewBox="0 0 40 40" fill="none" xmlns="http://www.w3.org/2000/svg">
<g clip-path="url(#clip0_1_764)">
<path d="M37.2506 11.7807L24.2401 5.82702C22.8846 5.2157 21.7815 4.92332 20.6784 4.9499C19.5887 4.92332 18.4856 5.2157 17.1168 5.82702L4.11963 11.7807C3.26909 12.1662 2.85712 12.8439 2.85712 13.5217C2.85712 14.1994 3.26909 14.864 4.11963 15.2627L9.59495 17.7611L18.0073 13.8141C17.9276 13.7211 17.9009 13.6147 17.9009 13.5217C17.9009 12.6844 19.3096 12.0465 20.7316 12.0465C22.1669 12.0465 23.549 12.6844 23.549 13.5217C23.549 14.3855 22.1669 15.0367 20.7316 15.0367C20.2931 15.0367 19.8546 14.9702 19.4691 14.864L11.4422 18.6249L17.1168 21.2297C18.4856 21.8542 19.5887 22.1201 20.6784 22.1068C21.7815 22.1201 22.8846 21.8542 24.2401 21.2297L37.2506 15.2627C38.1011 14.864 38.5131 14.1994 38.5131 13.5217C38.5131 12.8439 38.1011 12.1662 37.2506 11.7807ZM11.3891 20.5918V28.6719C13.6217 30.0274 16.8112 30.8513 20.6784 30.8513C28.5194 30.8513 33.5694 27.4891 33.5694 23.5155V18.9438L24.9976 22.8643C23.4427 23.582 22.0341 23.9408 20.6784 23.9275C19.3362 23.9408 17.9142 23.582 16.3593 22.8643L11.3891 20.5918ZM7.80086 18.9438V23.5155C7.80086 24.6717 8.46533 26.1069 9.6614 27.3296V19.8077L7.80086 18.9438ZM9.6614 31.755H11.3891V28.6719C10.7246 28.2732 10.1398 27.8214 9.6614 27.3296V31.755ZM8.61152 31.8481V35.3433C8.61152 36.3932 9.28929 37.0709 10.3392 37.0709H10.698C11.7479 37.0709 12.4256 36.3932 12.4256 35.3433V31.8481C12.4256 30.7982 11.7479 30.1204 10.698 30.1204H10.3392C9.28929 30.1204 8.61152 30.7982 8.61152 31.8481Z" fill="#262626"/>
</g>
<defs>
<clipPath id="clip0_1_764">
<rect width="40" height="40" fill="white"/>
</clipPath>
</defs>
</svg>
