<svg width="40" height="40" viewBox="0 0 40 40" fill="none" xmlns="http://www.w3.org/2000/svg">
<path d="M10.904 37.3216H28.683C32.1317 37.3216 33.8727 35.5637 33.8727 32.0816V6.68541C33.8727 3.18653 32.1484 1.42871 28.683 1.42871H24.4309C23.8616 1.42871 23.4766 1.8305 23.4766 2.43318C23.4766 2.51688 23.4766 2.60059 23.4766 2.66755C23.4766 4.84388 22.0033 6.1497 19.7935 6.1497C17.5837 6.1497 16.1105 4.84388 16.1105 2.66755C16.1105 2.60059 16.1105 2.51688 16.1105 2.43318C16.1105 1.8305 15.7255 1.42871 15.1563 1.42871H10.904C7.43862 1.42871 5.71429 3.18653 5.71429 6.68541V32.0816C5.71429 35.5637 7.45537 37.3216 10.904 37.3216ZM13.4487 13.9008C12.846 13.9008 12.4107 13.4488 12.4107 12.8461C12.4107 12.2769 12.846 11.8249 13.4487 11.8249H26.1552C26.7412 11.8249 27.1763 12.2769 27.1763 12.8461C27.1763 13.4488 26.7412 13.9008 26.1552 13.9008H13.4487ZM13.4487 19.8439C12.846 19.8439 12.4107 19.3919 12.4107 18.8227C12.4107 18.2367 12.846 17.7847 13.4487 17.7847H19.4587C20.0614 17.7847 20.4967 18.2367 20.4967 18.8227C20.4967 19.3919 20.0614 19.8439 19.4587 19.8439H13.4487Z" fill="#262626"/>
</svg>
