<svg width="40" height="40" viewBox="0 0 40 40" fill="none" xmlns="http://www.w3.org/2000/svg">
<path d="M3.53247 27.2249C4.73259 27.2249 5.65119 26.3062 5.65119 25.1359V13.9348C5.65119 12.7495 4.73259 11.816 3.53247 11.816C2.34718 11.816 1.42857 12.7495 1.42857 13.9348V25.1359C1.42857 26.3062 2.34718 27.2249 3.53247 27.2249ZM10.5702 30.4994C12.5407 30.4994 13.9186 29.1807 13.9186 27.3138V11.7716C13.9186 9.88993 12.5407 8.57129 10.5702 8.57129C8.61443 8.57129 7.23653 9.88993 7.23653 11.7716V27.3138C7.23653 29.1807 8.61443 30.4994 10.5702 30.4994ZM15.6373 22.3948H24.8382V16.6758H15.6373V22.3948ZM29.9053 30.4994C31.8759 30.4994 33.2538 29.1807 33.2538 27.3138V11.7716C33.2538 9.88993 31.8759 8.57129 29.9053 8.57129C27.9496 8.57129 26.5717 9.88993 26.5717 11.7716V27.3138C26.5717 29.1807 27.9496 30.4994 29.9053 30.4994ZM36.7949 27.2249C37.9802 27.2249 38.9136 26.3062 38.9136 25.1359V13.9348C38.9136 12.7495 37.9802 11.816 36.7949 11.816C35.6096 11.816 34.691 12.7495 34.691 13.9348V25.1359C34.691 26.3062 35.6096 27.2249 36.7949 27.2249Z" fill="#262626"/>
</svg>
