<svg width="40" height="44" viewBox="0 0 40 44" fill="none" xmlns="http://www.w3.org/2000/svg">
<path d="M14.3701 41.9866H24.5989C30.4247 41.9866 33.3043 39.0401 33.254 33.1473C33.187 26.4174 33.1536 21.529 32.9861 17.8627C32.5007 7.08147 29.4706 3.91741 19.4928 3.91741C9.51517 3.91741 6.46829 7.08147 5.9828 17.8627C5.81539 21.529 5.7819 26.4174 5.71494 33.1473C5.66472 39.0401 8.54418 41.9866 14.3701 41.9866ZM13.8846 35.3404C12.4449 35.3404 11.5241 34.4029 11.5241 32.9967V24.3583C11.5241 22.9353 12.4449 21.9977 13.8846 21.9977H25.1012C26.5242 21.9977 27.4449 22.9353 27.4449 24.3583V32.9967C27.4449 34.4029 26.5242 35.3404 25.1012 35.3404H13.8846ZM11.5241 28.4431H27.4449V26.4509H11.5241V28.4431ZM19.4928 0C16.2786 0 14.0185 2.17634 14.0185 5.13951H16.379C16.379 3.51563 17.6513 2.36049 19.4928 2.36049C21.3176 2.36049 22.6067 3.51563 22.6067 5.13951H24.9672C24.9672 2.17634 22.6904 0 19.4928 0Z" fill="#262626"/>
</svg>
