<svg width="17" height="15" viewBox="0 0 17 15" fill="none" xmlns="http://www.w3.org/2000/svg">
<path fill-rule="evenodd" clip-rule="evenodd" d="M-3.14722e-07 7.20039C-3.36449e-07 6.70333 0.402943 6.30039 0.9 6.30039L13.6655 6.30039L8.6762 1.54914C8.31791 1.20462 8.30674 0.634886 8.65125 0.276591C8.99576 -0.081703 9.5655 -0.0928752 9.9238 0.251639L16.5238 6.55164C16.7003 6.72132 16.8 6.95557 16.8 7.20039C16.8 7.4452 16.7003 7.67945 16.5238 7.84914L9.9238 14.1491C9.5655 14.4937 8.99576 14.4825 8.65125 14.1242C8.30674 13.7659 8.31791 13.1962 8.6762 12.8516L13.6655 8.10039L0.9 8.10039C0.402943 8.10039 -2.92995e-07 7.69745 -3.14722e-07 7.20039Z" fill="white"/>
</svg>
