<svg width="24" height="24" viewBox="0 0 24 24" fill="none" xmlns="http://www.w3.org/2000/svg">
<path d="M1.71429 11.9594C1.71429 13.6369 2.12612 15.2139 2.86943 16.6201L4.60715 14.8824C4.83818 14.6514 5.18974 14.6514 5.42077 14.8824C5.65179 15.1134 5.66184 15.465 5.42077 15.706L3.47211 17.6548C3.72322 18.0063 3.97434 18.3478 4.26563 18.6592L18.6696 4.2652C18.3482 3.97391 17.9967 3.71275 17.6552 3.47168L15.6864 5.44043C15.4553 5.67146 15.0938 5.66141 14.8627 5.44043C14.6317 5.2094 14.6317 4.85784 14.8627 4.61677L16.6105 2.87905C15.2143 2.1257 13.6272 1.71387 11.9498 1.71387C6.35492 1.71387 1.71429 6.35449 1.71429 11.9594ZM14.1496 6.97726L12.7734 8.35337C12.5424 8.5844 12.1808 8.57436 11.9498 8.35337C11.7288 8.12235 11.7188 7.7507 11.9498 7.52972L13.336 6.1536C13.567 5.93262 13.9286 5.92258 14.1496 6.1536C14.3806 6.38463 14.3806 6.74623 14.1496 6.97726ZM11.2467 9.8902L9.8605 11.2663C9.63951 11.4873 9.27791 11.4873 9.04689 11.2663C8.81586 11.0353 8.81586 10.6737 9.04689 10.4427L10.423 9.06654C10.654 8.83552 11.0157 8.83552 11.2467 9.06654C11.4676 9.28753 11.4777 9.66922 11.2467 9.8902ZM8.33372 12.7931L6.96765 14.1692C6.72657 14.4003 6.37501 14.3902 6.14398 14.1692C5.91296 13.9382 5.91296 13.5867 6.14398 13.3556L7.51005 11.9694C7.74108 11.7384 8.10268 11.7484 8.33372 11.9694C8.5547 12.2005 8.57479 12.562 8.33372 12.7931ZM11.9598 22.2049C17.5648 22.2049 22.2053 17.5543 22.2053 11.9594C22.2053 10.292 21.7936 8.70494 21.0502 7.30873L19.3125 9.03641C19.0714 9.27748 18.73 9.26744 18.4989 9.03641C18.2779 8.80539 18.2578 8.45382 18.4989 8.21275L20.4476 6.27413C20.2065 5.92258 19.9553 5.58106 19.6641 5.26967L5.26005 19.6636C5.58148 19.9449 5.923 20.206 6.26451 20.4472L8.23327 18.4784C8.47434 18.2272 8.82591 18.2474 9.05693 18.4784C9.28796 18.7094 9.298 19.051 9.05693 19.292L7.29911 21.0498C8.70537 21.7831 10.2824 22.2049 11.9598 22.2049ZM17.7757 10.5632L16.4096 11.9494C16.1786 12.1804 15.817 12.1703 15.586 11.9494C15.365 11.7083 15.355 11.3567 15.586 11.1257L16.9621 9.74958C17.1931 9.51856 17.5447 9.51856 17.7757 9.74958C18.0167 9.97056 18.0067 10.3322 17.7757 10.5632ZM14.8728 13.4762L13.4967 14.8422C13.2657 15.0833 12.904 15.0833 12.673 14.8422C12.452 14.6212 12.442 14.2496 12.673 14.0186L14.0591 12.6525C14.2802 12.4315 14.6518 12.4315 14.8728 12.6525C15.1038 12.8835 15.1038 13.2351 14.8728 13.4762ZM11.9698 16.3791L10.5838 17.7551C10.3527 17.9762 10.0011 17.9862 9.7701 17.7551C9.53907 17.5241 9.53907 17.1625 9.7701 16.9315L11.1462 15.5554C11.3772 15.3244 11.7388 15.3444 11.9698 15.5554C12.1909 15.7965 12.2009 16.1581 11.9698 16.3791Z" fill="#CBEA7B"/>
</svg>
